<?xml version="1.0" encoding="UTF-8" standalone="no"?>
<!DOCTYPE svg PUBLIC "-//W3C//DTD SVG 1.1//EN" "http://www.w3.org/Graphics/SVG/1.1/DTD/svg11.dtd">
<svg width="100%" height="100%" viewBox="0 0 437 198" version="1.1" xmlns="http://www.w3.org/2000/svg" xmlns:xlink="http://www.w3.org/1999/xlink" xml:space="preserve" xmlns:serif="http://www.serif.com/" style="fill-rule:evenodd;clip-rule:evenodd;stroke-linejoin:round;stroke-miterlimit:1.5;">
    <g transform="matrix(1,0,0,1,-31.48,-18.0526)">
        <g transform="matrix(1,0,0,1,-48.5741,53.8225)">
            <g transform="matrix(144,0,0,144,77.3181,161.241)">
                <path d="M0.434,0L0.267,-0.22L0.099,0L0.019,0L0.227,-0.27L0.029,-0.526L0.109,-0.526L0.267,-0.32L0.425,-0.526L0.503,-0.526L0.305,-0.27L0.515,0L0.434,0Z" style="fill-rule:nonzero;"/>
            </g>
            <g transform="matrix(144,0,0,144,151.478,161.241)">
                <path d="M0.557,-0.241L0.117,-0.241C0.121,-0.186 0.142,-0.142 0.18,-0.109C0.218,-0.075 0.266,-0.058 0.324,-0.058C0.357,-0.058 0.387,-0.064 0.414,-0.076C0.441,-0.087 0.465,-0.104 0.485,-0.127L0.525,-0.081C0.502,-0.053 0.472,-0.032 0.438,-0.017C0.403,-0.002 0.364,0.005 0.322,0.005C0.268,0.005 0.22,-0.007 0.179,-0.03C0.137,-0.053 0.104,-0.084 0.081,-0.125C0.058,-0.166 0.046,-0.212 0.046,-0.263C0.046,-0.314 0.057,-0.36 0.08,-0.401C0.102,-0.442 0.133,-0.473 0.172,-0.496C0.211,-0.519 0.254,-0.53 0.303,-0.53C0.352,-0.53 0.395,-0.519 0.434,-0.496C0.473,-0.473 0.503,-0.442 0.525,-0.402C0.547,-0.361 0.558,-0.315 0.558,-0.263L0.557,-0.241ZM0.303,-0.469C0.252,-0.469 0.21,-0.453 0.176,-0.421C0.141,-0.388 0.122,-0.346 0.117,-0.294L0.49,-0.294C0.485,-0.346 0.466,-0.388 0.432,-0.421C0.397,-0.453 0.354,-0.469 0.303,-0.469Z" style="fill-rule:nonzero;"/>
            </g>
            <g transform="matrix(144,0,0,144,238.454,161.241)">
                <path d="M0.367,-0.53C0.433,-0.53 0.486,-0.511 0.525,-0.473C0.564,-0.434 0.583,-0.378 0.583,-0.305L0.583,0L0.512,0L0.512,-0.298C0.512,-0.353 0.498,-0.394 0.471,-0.423C0.444,-0.452 0.405,-0.466 0.354,-0.466C0.297,-0.466 0.253,-0.449 0.22,-0.416C0.187,-0.382 0.17,-0.335 0.17,-0.276L0.17,0L0.099,0L0.099,-0.526L0.167,-0.526L0.167,-0.429C0.186,-0.461 0.213,-0.486 0.248,-0.504C0.282,-0.521 0.322,-0.53 0.367,-0.53Z" style="fill-rule:nonzero;"/>
            </g>
            <g transform="matrix(144,0,0,144,335.942,161.241)">
                <path d="M0.099,-0.526L0.17,-0.526L0.17,0L0.099,0L0.099,-0.526ZM0.135,-0.641C0.12,-0.641 0.108,-0.646 0.098,-0.656C0.088,-0.666 0.083,-0.678 0.083,-0.692C0.083,-0.705 0.088,-0.717 0.098,-0.727C0.108,-0.737 0.12,-0.742 0.135,-0.742C0.15,-0.742 0.162,-0.737 0.172,-0.728C0.182,-0.718 0.187,-0.706 0.187,-0.693C0.187,-0.678 0.182,-0.666 0.172,-0.656C0.162,-0.646 0.15,-0.641 0.135,-0.641Z" style="fill-rule:nonzero;"/>
            </g>
            <g transform="matrix(144,0,0,144,374.678,161.241)">
                <path d="M0.376,-0.032C0.363,-0.02 0.346,-0.011 0.327,-0.005C0.307,0.002 0.286,0.005 0.265,0.005C0.216,0.005 0.178,-0.008 0.151,-0.035C0.124,-0.062 0.111,-0.099 0.111,-0.148L0.111,-0.466L0.017,-0.466L0.017,-0.526L0.111,-0.526L0.111,-0.641L0.182,-0.641L0.182,-0.526L0.342,-0.526L0.342,-0.466L0.182,-0.466L0.182,-0.152C0.182,-0.121 0.19,-0.097 0.206,-0.081C0.221,-0.064 0.244,-0.056 0.273,-0.056C0.288,-0.056 0.302,-0.058 0.316,-0.063C0.329,-0.068 0.341,-0.074 0.351,-0.083L0.376,-0.032Z" style="fill-rule:nonzero;"/>
            </g>
            <g transform="matrix(144,0,0,144,433.142,161.241)">
                <path d="M0.367,-0.53C0.433,-0.53 0.486,-0.511 0.525,-0.473C0.564,-0.434 0.583,-0.378 0.583,-0.305L0.583,0L0.512,0L0.512,-0.298C0.512,-0.353 0.498,-0.394 0.471,-0.423C0.444,-0.452 0.405,-0.466 0.354,-0.466C0.297,-0.466 0.253,-0.449 0.22,-0.416C0.187,-0.382 0.17,-0.335 0.17,-0.276L0.17,0L0.099,0L0.099,-0.742L0.17,-0.742L0.17,-0.434C0.189,-0.465 0.216,-0.488 0.25,-0.505C0.284,-0.522 0.323,-0.53 0.367,-0.53Z" style="fill-rule:nonzero;"/>
            </g>
        </g>
        <g transform="matrix(1,0,0,1,0,12)">
            <path d="M101.288,119.225C193.359,5.554 424.496,10.593 433.03,119.605" style="fill:none;stroke:rgb(165,165,165);stroke-width:9.5px;"/>
        </g>
        <g transform="matrix(0.867716,0,0,0.922774,119.396,-10.733)">
            <ellipse cx="205.17" cy="63.705" rx="34.574" ry="32.511" style="fill:rgb(1,133,116);"/>
        </g>
        <g transform="matrix(0.872525,-0.0591584,0.0534023,0.787628,47.7188,51.7403)">
            <path d="M438.829,133.877L427.988,133.885L427.96,136.648C431.641,136.171 435.106,136.107 438.78,136.572L438.829,133.877Z" style="fill:rgb(165,165,165);"/>
        </g>
        <g transform="matrix(1.04429,0,0,1.00588,-6.19589,0.354228)">
            <path d="M99.396,127.129L106.476,133.074L95.39,132.915L99.396,127.129Z" style="fill:rgb(165,165,165);"/>
        </g>
    </g>
</svg>
