<?xml version="1.0" encoding="UTF-8" standalone="no"?>
<!DOCTYPE svg PUBLIC "-//W3C//DTD SVG 1.1//EN" "http://www.w3.org/Graphics/SVG/1.1/DTD/svg11.dtd">
<svg width="100%" height="100%" viewBox="0 0 437 198" version="1.1" xmlns="http://www.w3.org/2000/svg" xmlns:xlink="http://www.w3.org/1999/xlink" xml:space="preserve" xmlns:serif="http://www.serif.com/" style="fill-rule:evenodd;clip-rule:evenodd;stroke-linejoin:round;stroke-miterlimit:1.5;">
    <g transform="matrix(1,0,0,1,-31.48,-18.0526)">
        <g transform="matrix(1,0,0,1,-48.5741,53.8225)">
            <text x="77.318px" y="161.241px" style="font-family:'Montserrat-Regular', 'Montserrat';font-size:144px;">x<tspan x="151.478px " y="161.241px ">e</tspan>nith</text>
        </g>
        <g transform="matrix(1,0,0,1,0,12)">
            <path d="M101.288,119.225C193.359,5.554 424.496,10.593 433.03,119.605" style="fill:none;stroke:rgb(165,165,165);stroke-width:9.5px;"/>
        </g>
        <g transform="matrix(0.867716,0,0,0.922774,119.396,-10.733)">
            <ellipse cx="205.17" cy="63.705" rx="34.574" ry="32.511" style="fill:rgb(1,133,116);"/>
        </g>
        <g transform="matrix(0.872525,-0.0591584,0.0534023,0.787628,47.7188,51.7403)">
            <path d="M438.829,133.877L427.988,133.885L427.96,136.648C431.641,136.171 435.106,136.107 438.78,136.572L438.829,133.877Z" style="fill:rgb(165,165,165);"/>
        </g>
        <g transform="matrix(1.04429,0,0,1.00588,-6.19589,0.354228)">
            <path d="M99.396,127.129L106.476,133.074L95.39,132.915L99.396,127.129Z" style="fill:rgb(165,165,165);"/>
        </g>
    </g>
</svg>
